<svg width="1106" height="140" viewBox="0 0 1106 140" fill="none" xmlns="http://www.w3.org/2000/svg">
<path d="M316.621 47.29H335.101L360.641 109.5L388.521 47.29H400.961L426.491 109.5L466.481 17.46H452.031L426.831 76.76L419.101 57.12L442.621 0H491.681L433.881 134.6H420.441L394.241 72.39L368.361 134.6H354.591L316.621 47.29Z" fill="#252B65"/>
<path fill-rule="evenodd" clip-rule="evenodd" d="M889.9 39.3203H888.82V139.1H889.9V39.3203ZM611.381 80.3564C611.376 80.8324 611.372 81.2353 611.37 81.5509C611.37 81.5509 611.2 92.2209 604.04 94.9609C612.119 97.1399 611.714 113.576 611.416 125.636C611.336 128.907 611.263 131.856 611.37 134.111H599.49C600.589 100.054 599.197 100.107 580.586 100.808C575.316 101.007 568.665 101.258 560.3 100.801L560.22 134.111H548.84V45.9609C552.348 46.5846 558.355 46.2845 565.279 45.9386C582.668 45.0698 605.843 43.9119 609.77 56.3709C611.617 58.1716 611.443 74.5974 611.381 80.3538V80.3544V80.3564ZM587.799 89.1593C591.679 88.9577 599.974 88.5269 599.55 79.8109C599.327 78.2246 599.439 76.1283 599.56 73.8629C599.846 68.4879 600.183 62.1604 596.23 59.4309C594.272 57.4211 577.746 57.6106 567.636 57.7266C564.214 57.7658 561.528 57.7966 560.39 57.7309V89.2109H586.91C587.169 89.192 587.468 89.1765 587.799 89.1593ZM293.023 46.1518C290.388 46.195 287.531 46.1138 284.568 46.0296C266.953 45.5289 245.583 44.9216 244.753 69.7118C245.148 74.3715 244.916 80.2428 244.666 86.5526C243.805 108.314 242.737 135.291 266.513 135.772C269.148 135.729 272.004 135.81 274.967 135.894C292.583 136.395 313.952 137.002 314.783 112.212C314.387 107.552 314.619 101.681 314.869 95.3709C315.731 73.6096 316.799 46.6324 293.023 46.1518ZM303.033 111.522C303.048 125.486 288.46 124.771 277.104 124.214C273.675 124.046 270.542 123.893 268.193 124.162C261.773 124.162 256.523 118.472 256.523 111.522V69.9117C256.507 55.9472 271.095 56.6623 282.452 57.2191C285.88 57.3871 289.014 57.5408 291.363 57.2718C297.783 57.2718 303.033 62.9617 303.033 69.9117V111.522ZM537.213 45.9609V57.7909H489.763V83.0309H535.963V94.2209H489.763V122.481H537.213V134.111H478.473V45.9609H537.213ZM59.74 58.6503V46.8203H1V134.97H59.74V123.34H12.29V95.0803H58.49V83.8903H12.29V58.6503H59.74ZM935.353 125.228C935.353 127.558 934.013 128.718 931.343 128.718H917.533C914.933 128.718 913.633 127.558 913.633 125.228V94.0278C913.633 91.6878 914.963 90.5078 917.623 90.5078H931.353C934.033 90.5078 935.363 91.6778 935.363 94.0278V102.178H928.763V95.4178H920.203V123.808H928.763V113.118H923.873V108.258H935.353V125.228ZM968.839 128.718H961.989L954.749 110.968V107.528H961.209V95.4178H952.929V128.718H946.359V90.5078H963.789C966.429 90.5078 967.749 91.6778 967.749 94.0278V107.918C967.749 109.528 967.119 110.568 965.869 111.038C965.199 111.278 963.769 111.408 961.599 111.408L968.839 128.718ZM996.759 128.718C999.419 128.718 1000.75 127.558 1000.75 125.228H1000.76V94.0278C1000.76 91.6778 999.429 90.5078 996.769 90.5078H982.509C979.909 90.5078 978.609 91.6878 978.609 94.0278V125.228C978.609 127.558 979.909 128.718 982.509 128.718H996.759ZM994.179 95.4178V123.808H985.169V95.4178H994.179ZM1044.21 90.5078L1037.78 128.768H1031.35L1027.42 107.108C1027.38 106.328 1027.31 105.168 1027.2 103.618C1027.2 104.398 1027.13 105.568 1026.98 107.108L1023.08 128.768H1016.62L1010.19 90.5078H1016.84L1020.24 113.168C1020.3 113.948 1020.37 115.118 1020.46 116.658C1020.48 115.878 1020.56 114.718 1020.71 113.168L1024.5 90.5078H1029.89L1033.68 113.168C1033.72 113.664 1033.77 114.318 1033.82 115.124L1033.83 115.216L1033.83 115.293C1033.86 115.709 1033.9 116.165 1033.93 116.658C1033.95 115.878 1034.02 114.718 1034.15 113.168L1037.55 90.5078H1044.21ZM1065.49 95.5695H1072.73H1072.74V90.5195H1051.71V95.5695H1058.95V128.719H1065.49V95.5695ZM1103.92 128.718H1097.29V111.578H1088.39V128.718H1081.82V90.5078H1088.39V106.258H1097.29V90.5078H1103.92V128.718ZM703.953 57.7909V45.9609H645.223V134.111H703.953V122.481H656.513V94.2209H702.703V83.0309H656.513V57.7909H703.953ZM71.5117 134.97V46.8203H88.1917L114.752 120.45L141.162 46.8303H158.002V135.02H146.682V63.3903L121.172 135.02H108.532L82.8317 63.4803L82.8717 135.02L71.5117 134.97ZM193.323 46.7929C204.566 46.3693 215.771 45.9471 226.682 49.7007C235.732 54.8617 235.221 64.8656 234.772 73.6405V73.6409C234.611 76.8015 234.458 79.8027 234.762 82.3607C235.013 100.818 220.145 101.49 212.935 101.816L212.934 101.816L212.934 101.816C212.394 101.84 211.897 101.863 211.452 101.891H186.232V135.021H174.832L174.942 46.8107C181.053 47.2553 187.194 47.0239 193.323 46.7929ZM223.113 70.5577C223.094 69.1683 223.08 68.0865 223.102 67.5407C223.412 62.2807 220.852 58.4807 212.512 58.7007L186.192 58.5507V90.1207C188.785 89.7776 192.719 89.9493 197.087 90.14C205.958 90.5272 216.617 90.9925 221.462 87.3807C223.326 86.6046 223.187 76.1181 223.113 70.5578V70.5577ZM776.711 51.7109C774.167 45.1285 742.843 45.6307 725.588 45.9073C721.138 45.9786 717.624 46.0349 715.781 45.9509V134.111H759.261C767.951 134.201 784.961 130.221 784.201 106.271C783.732 101.915 783.975 96.5293 784.234 90.7664V90.7655V90.7646V90.7638C784.86 76.8926 785.584 60.8382 776.711 51.7109ZM772.501 105.591C773.181 122.901 761.231 123.191 754.771 122.881H727.071L727.011 57.1909C730.886 57.1643 734.434 57.1151 737.683 57.07C755.408 56.8241 764.235 56.7016 768.581 61.0537C772.893 65.3711 772.794 74.0919 772.599 91.4637V91.4695V91.4759C772.552 95.6596 772.499 100.345 772.501 105.591ZM809.241 45.9492H797.781C797.95 48.3495 797.872 55.111 797.772 63.6718V63.6772C797.526 84.9682 797.15 117.383 800.131 121.519C804.431 135.149 821.871 135.149 821.871 135.149L822.324 135.155C828.725 135.231 846.467 135.444 850.781 133.189C866.201 128.529 864.881 106.209 864.881 106.209V45.9492H853.351C853.284 46.9978 853.313 53.1031 853.352 61.2816C853.447 81.3379 853.602 113.862 852.551 114.849C850.125 123.568 839.098 122.933 830.401 122.432C827.158 122.245 824.239 122.077 822.211 122.419C814.211 122.329 812.101 118.769 812.101 118.769C807.917 113.483 808.633 87.827 809.185 68.0502C809.464 58.0464 809.701 49.5469 809.241 45.9492ZM917.921 50.7184H926.491V46.8984H912.961V75.7284H917.921V62.9884H925.251V59.2484H917.921V50.7184ZM947.351 75.7184C949.361 75.7184 950.361 74.8384 950.361 73.0884V49.5584C950.361 47.7884 949.351 46.9084 947.351 46.9084H936.591C934.631 46.9084 933.651 47.7884 933.651 49.5584V73.0884C933.651 74.8384 934.631 75.7184 936.591 75.7184H947.351ZM945.411 50.5984V72.0184H938.611V50.5984H945.411ZM974.561 73.0884C974.561 74.8384 973.561 75.7184 971.551 75.7184H961.581C959.591 75.7184 958.591 74.8384 958.591 73.0884V66.2184H963.551V72.0884H969.611V66.4384L959.681 58.2584C958.961 57.6584 958.601 56.8884 958.601 55.9584V49.5484C958.601 47.7784 959.601 46.8984 961.591 46.8984H971.561C973.561 46.8984 974.571 47.7684 974.571 49.5084V55.9584H969.611V50.5284H963.551V55.7384L973.481 63.8784C974.201 64.4684 974.561 65.2484 974.561 66.2184V73.0884ZM991.781 50.7184H997.241H997.251V46.9084H981.391V50.7184H986.851V75.7284H991.781V50.7184ZM1017.84 75.7184H1004.1V46.8984H1017.72V50.7084H1009.06V59.1284H1016.51V62.8684H1009.06V71.9084H1017.85V75.7184H1017.84ZM1037.35 75.7184H1042.52L1037.05 62.6684C1038.69 62.6684 1039.76 62.5684 1040.27 62.3884C1041.22 62.0284 1041.69 61.2384 1041.69 60.0284V49.5484C1041.69 47.7784 1040.69 46.8984 1038.7 46.8984H1025.55V75.7184H1030.51V50.5984H1036.76V59.7284H1031.89V62.3284L1037.35 75.7184ZM1054.93 75.7184H1049.97V46.8984H1054.93V75.7184ZM1075.79 75.7184H1080.13V46.8984H1075.3V62.5884C1075.3 63.0884 1075.41 63.7884 1075.62 64.6684L1067.68 46.8984H1063.34V75.7184H1068.17V59.6584C1068.17 59.1584 1068.06 58.4584 1067.85 57.5784L1075.79 75.7184ZM1104.83 73.0884C1104.83 74.8384 1103.82 75.7184 1101.8 75.7184H1091.38C1089.42 75.7184 1088.44 74.8384 1088.44 73.0884V49.5584C1088.44 47.7884 1089.44 46.9084 1091.45 46.9084H1101.8C1103.82 46.9084 1104.83 47.7884 1104.83 49.5584V55.7084H1099.85V50.6084H1093.39V72.0284H1099.85V63.9584H1096.17V60.2984H1104.83V73.0884Z" fill="black"/>

</svg>
