<svg width="637" height="137" viewBox="0 0 637 137" fill="none" xmlns="http://www.w3.org/2000/svg">
<path fill-rule="evenodd" clip-rule="evenodd" d="M232.09 33.2H245.71L264.53 75.55L285.09 33.2H294.25L313.07 75.55L342.54 12.89H331.89L313.32 53.26L307.62 39.89L324.96 1H361.11L318.52 92.63H308.61L289.3 50.29L270.23 92.63H260.07L232.09 33.2ZM1 92V33.82H42.45V39.99H7.51V59.02H41.46V64.96H7.51V85.91H42.45V92.01H1V92ZM52.97 33.82V92H59.48V39.25L79.89 92H87.95L108.36 39.25V92H114.87V33.82H104.03L83.98 85.67L63.73 33.82H52.97ZM129.15 92V33.82H154.04C160.68 33.82 165.26 34.79 167.76 36.73C170.26 38.67 171.51 42.13 171.51 47.11V55.9C171.51 61.01 170.27 64.54 167.8 66.49C165.32 68.44 160.74 69.42 154.04 69.42H135.66V92.01H129.15V92ZM164.69 55.9V47.34C164.69 44.53 164.02 42.6 162.68 41.56C161.34 40.52 158.44 40 153.97 40H135.67V63.29H153.97C158.36 63.29 161.25 62.76 162.62 61.69C164 60.61 164.69 58.68 164.69 55.9ZM185.21 37.51C182.09 40.44 180.53 45.62 180.53 53.04V72.77C180.53 80.22 182.09 85.4 185.21 88.32C188.34 91.24 193.88 92.7 201.85 92.7H209.31C217.25 92.7 222.79 91.24 225.93 88.32C229.06 85.41 230.63 80.22 230.63 72.77V53.04C230.63 45.54 229.08 40.34 226 37.45C222.92 34.56 217.36 33.11 209.31 33.11H201.85C193.88 33.11 188.33 34.58 185.21 37.51ZM203.72 39.17H207.37C211.55 39.17 214.5 39.39 216.22 39.82C217.94 40.25 219.41 40.97 220.63 41.99C221.79 42.99 222.61 44.32 223.09 46C223.56 47.67 223.8 50.56 223.8 54.65V71.22C223.8 75.39 223.57 78.28 223.11 79.9C222.65 81.52 221.85 82.81 220.71 83.77C219.46 84.82 217.97 85.56 216.22 86C214.48 86.44 211.53 86.66 207.37 86.66H203.72C199.57 86.66 196.63 86.44 194.91 86C193.19 85.55 191.7 84.81 190.46 83.77C189.3 82.78 188.48 81.45 188 79.8C187.53 78.14 187.29 75.28 187.29 71.22V54.73C187.29 50.64 187.52 47.75 188 46.07C188.48 44.38 189.29 43.05 190.46 42.06C191.71 41.02 193.19 40.27 194.91 39.83C196.63 39.39 199.56 39.17 203.72 39.17ZM352.92 91.3799V33.2H394.37V39.37H359.43V58.4H393.38V64.34H359.43V85.2799H394.37V91.3799H352.92ZM404.89 33.2V91.37H411.41V68.71H432.37C436.26 68.71 438.87 69.45 440.21 70.92C441.54 72.39 442.21 75.2099 442.21 79.3799V91.3799H449.04V77.39C449.04 73.69 448.47 70.9799 447.33 69.2599C446.19 67.5399 444.22 66.35 441.41 65.7C443.98 65.2599 445.89 64.1699 447.15 62.4399C448.41 60.7099 449.04 58.32 449.04 55.27V46.4799C449.04 41.5099 447.79 38.05 445.29 36.11C442.79 34.17 438.21 33.2 431.57 33.2H404.89ZM411.39 39.3799H430.25C435.28 39.3799 438.53 39.9599 440 41.1299C441.47 42.3099 442.2 44.47 442.2 47.62V54.42C442.2 57.52 441.44 59.67 439.92 60.87C438.39 62.07 435.17 62.67 430.25 62.67H411.39V39.3799ZM475.82 91.3799V33.2H517.27V39.37H482.33V58.4H516.28V64.34H482.33V85.2799H517.27V91.3799H475.82ZM527.79 33.2V91.39H556.33C563.71 91.39 568.91 89.9299 571.91 87.0299C574.92 84.1299 576.42 79.0699 576.42 71.8499V52.6599C576.42 45.4699 574.92 40.4299 571.93 37.5399C568.94 34.6499 563.74 33.2 556.33 33.2H527.79ZM555.26 85.64H534.3V38.99H555.26C560.97 38.99 564.79 39.94 566.71 41.84C568.63 43.74 569.59 47.4999 569.59 53.1299V71.93C569.59 77.27 568.62 80.8899 566.69 82.7899C564.76 84.6899 560.95 85.64 555.26 85.64ZM588.21 33.2H594.8V71.3799C594.8 75.1299 595.01 77.7499 595.42 79.2299C595.83 80.7199 596.54 81.91 597.54 82.83C598.6 83.77 599.86 84.43 601.33 84.8C602.8 85.18 605.33 85.37 608.93 85.37H615.12C618.75 85.37 621.3 85.18 622.78 84.8C624.26 84.42 625.53 83.76 626.59 82.83C627.57 81.94 628.26 80.76 628.65 79.27C629.05 77.78 629.25 75.1499 629.25 71.3799V33.2H635.84V72.1599C635.84 79.5799 634.35 84.7599 631.37 87.6899C628.39 90.6199 623.13 92.08 615.59 92.08H608.44C600.9 92.08 595.64 90.6199 592.66 87.6899C589.68 84.7599 588.19 79.5799 588.19 72.1599V33.2H588.21ZM3.85015 116.79H9.58015V115.11H1.66016V136.5H3.85015V126.62H9.13016V124.91H3.85015V116.79ZM54.0399 134.99C54.0399 135.44 53.8799 135.8 53.5399 136.08C53.2099 136.36 52.7899 136.5 52.2699 136.5H45.3799C44.8699 136.5 44.4499 136.36 44.1199 136.08C43.7999 135.8 43.6299 135.43 43.6299 134.99V116.63C43.6299 116.18 43.7899 115.82 44.1199 115.54C44.4399 115.26 44.8599 115.12 45.3799 115.12H52.2699C52.7799 115.12 53.2099 115.26 53.5399 115.54C53.8699 115.82 54.0399 116.19 54.0399 116.63V134.99ZM51.8599 134.82V116.79H45.8399V134.82H51.8599ZM98.1201 136.08C98.4401 135.8 98.6002 135.44 98.6002 134.99V130.04C98.6002 129.45 98.3701 128.91 97.9202 128.44L91.1002 121.3V116.79H96.4102V121.6H98.6002V116.62C98.6002 116.18 98.4401 115.81 98.1201 115.53C97.8001 115.25 97.3801 115.11 96.8701 115.11H90.6802C90.1602 115.11 89.7402 115.25 89.4102 115.53C89.0802 115.81 88.9102 116.17 88.9102 116.62V120.95C88.9102 121.55 89.1501 122.09 89.6201 122.58L96.4102 129.72V134.82H91.1002V129.56H88.9102V134.99C88.9102 135.43 89.0802 135.8 89.4102 136.08C89.7402 136.36 90.1702 136.5 90.6802 136.5H96.8701C97.3801 136.5 97.8001 136.36 98.1201 136.08ZM141.98 116.79H138.18V136.5H135.99V116.79H132.15V115.11H141.98V116.79ZM175.58 136.5H183.66H183.67V134.82H177.77V126.48H183.05V124.77H177.77V116.79H183.57V115.11H175.58V136.5ZM228.58 136.5H226.28L221.71 125.04L222.01 124.66H225.91V116.79H220.3V136.5H218.11V115.11H226.35C226.86 115.11 227.28 115.25 227.61 115.53C227.93 115.81 228.1 116.18 228.1 116.62V124.74C228.1 125.77 227.3 126.28 225.71 126.28C225.589 126.28 225.429 126.274 225.23 126.267H225.229H225.229L225.02 126.26C224.72 126.25 224.5 126.24 224.36 126.24C225.065 127.95 225.767 129.66 226.47 131.37C227.172 133.08 227.875 134.79 228.58 136.5ZM263.01 136.5H265.2V115.11H263.01V136.5ZM310.48 136.5H308.97L302.4 120.77V136.5H300.34V115.11H301.98L308.43 130.57V115.11H310.49V136.5H310.48ZM354.91 136.08C355.24 135.8 355.4 135.44 355.4 134.99V125.8H350.57V127.44H353.2V134.83H347.63V116.8H353.2V121.61H355.4V116.63C355.4 116.19 355.23 115.82 354.91 115.54C354.58 115.26 354.16 115.12 353.65 115.12H347.19C346.67 115.12 346.25 115.26 345.93 115.54C345.6 115.82 345.44 116.18 345.44 116.63V134.99C345.44 135.43 345.61 135.8 345.93 136.08C346.26 136.36 346.68 136.5 347.19 136.5H353.65C354.17 136.5 354.58 136.36 354.91 136.08ZM402.02 134.55C402.02 135.85 401.27 136.51 399.77 136.51H392.04C390.58 136.51 389.85 135.86 389.85 134.55V117.08C389.85 115.77 390.59 115.11 392.08 115.11H399.77C401.27 115.11 402.02 115.77 402.02 117.08V121.65H398.33V117.86H393.54V133.76H398.33V127.77H395.59V125.05H402.02V134.55ZM444.75 136.5H448.59L444.53 126.81C445.75 126.81 446.54 126.75 446.92 126.61C447.62 126.35 447.97 125.76 447.97 124.86V117.08C447.97 115.77 447.23 115.11 445.75 115.11H435.99V136.5H439.67V117.85H444.31V124.63H440.69V126.56L444.75 136.5ZM494.28 134.55C494.28 135.85 493.54 136.51 492.05 136.51H484.06C482.6 136.51 481.87 135.86 481.87 134.55V117.08C481.87 115.77 482.6 115.11 484.06 115.11H492.05C493.54 115.11 494.28 115.77 494.28 117.08V134.55ZM490.6 133.76V117.86H485.55V133.76H490.6ZM542.83 136.53L546.43 115.11H542.69L540.79 127.8C540.71 128.66 540.67 129.31 540.66 129.75C540.643 129.506 540.627 129.28 540.612 129.07C540.598 128.882 540.585 128.707 540.573 128.546C540.552 128.253 540.534 128.004 540.52 127.8L538.4 115.11H535.38L533.26 127.8C533.18 128.66 533.13 129.31 533.12 129.75C533.06 128.89 533.02 128.24 532.99 127.8L531.09 115.11H527.36L530.96 136.53H534.58L536.77 124.4C536.86 123.53 536.9 122.88 536.9 122.44C536.97 123.31 537.01 123.96 537.03 124.4L539.23 136.53H542.83ZM590.22 117.94H586.16V136.51H582.5V117.94H578.44V115.11H590.22V117.94ZM631.79 136.5H635.5V115.11H631.79V123.93H626.81V115.11H623.13V136.5H626.81V126.9H631.79V136.5Z" fill="#A20000"/>

</svg>
